<svg width="24" height="25" viewBox="0 0 24 25" fill="#323232" xmlns="http://www.w3.org/2000/svg">
<g clip-path="url(#clip0_270_5387)">
<path d="M13.0516 12.5001L18.5016 7.0501C18.8016 6.7501 18.8016 6.3001 18.5016 6.0001C18.2016 5.7001 17.7516 5.7001 17.4516 6.0001L12.0016 11.4501L6.55156 5.9501C6.25156 5.6501 5.80156 5.6501 5.50156 5.9501C5.20156 6.2501 5.20156 6.7001 5.50156 7.0001L10.9516 12.5001L5.45156 17.9501C5.15156 18.2501 5.15156 18.7001 5.45156 19.0001C5.60156 19.1501 5.80156 19.2001 6.00156 19.2001C6.20156 19.2001 6.40156 19.1501 6.55156 19.0001L12.0016 13.5501L17.4516 19.0001C17.6016 19.1501 17.8016 19.2001 18.0016 19.2001C18.2016 19.2001 18.4016 19.1501 18.5516 19.0001C18.8516 18.7001 18.8516 18.2501 18.5516 17.9501L13.0516 12.5001Z" fill="#1F1F1F"/>
</g>
<defs>
<clipPath id="clip0_270_5387">
<rect width="24" height="24" fill="white" transform="translate(0 0.5)"/>
</clipPath>
</defs>
</svg>
