<svg width="32" height="32" viewBox="0 0 32 32" fill="currentColor" xmlns="http://www.w3.org/2000/svg">
<g clip-path="url(#clip0_297_9626)">
<path d="M21.3346 6.66602H6.66797C4.46797 6.66602 2.66797 8.46602 2.66797 10.666V19.9993C2.66797 22.1994 4.46797 23.9993 6.66797 23.9993V27.5327C6.66797 28.1993 7.0013 28.7327 7.6013 29.066C7.8013 29.1993 8.06797 29.1993 8.33464 29.1993C8.73464 29.1993 9.06797 29.066 9.4013 28.7994L15.4013 23.9327H21.4013C23.6013 23.9327 25.4013 22.1327 25.4013 19.9327V10.666C25.3346 8.46602 23.5346 6.66602 21.3346 6.66602ZM25.3346 2.66602H10.668C9.2013 2.66602 7.93464 3.46602 7.2013 4.66602H10.668H21.3346H25.3346C26.468 4.66602 27.3346 5.53268 27.3346 6.66602V10.666V15.9993V19.466C28.5346 18.7994 29.3346 17.466 29.3346 15.9993V6.66602C29.3346 4.46602 27.5346 2.66602 25.3346 2.66602Z" fill="white"/>
</g>
<defs>
<clipPath id="clip0_297_9626">
<rect width="32" height="32" fill="white"/>
</clipPath>
</defs>
</svg>
