<svg width="12" height="12" viewBox="0 0 12 12" fill="none" xmlns="http://www.w3.org/2000/svg">
<g clip-path="url(#clip0_317_5973)">
<path d="M8.4733 6.6249L6.9733 5.9999L8.4733 5.3749C8.6483 5.2999 8.7983 5.1499 8.8733 4.9499C8.9483 4.7499 8.9233 4.5499 8.8233 4.3749C8.7233 4.1999 8.5483 4.0749 8.3483 4.0249C8.1483 3.9749 7.9483 4.0249 7.7733 4.1499L6.4983 5.1499L6.6983 3.5499C6.7233 3.3499 6.6733 3.1499 6.5233 2.9999C6.2483 2.6999 5.7233 2.6999 5.4733 2.9999C5.3483 3.1499 5.2733 3.3499 5.2983 3.5499L5.4983 5.1499L4.1983 4.1749C4.0483 4.0499 3.8233 3.9999 3.6233 4.0499C3.4233 4.0999 3.2483 4.2249 3.1483 4.3999C3.0483 4.5749 3.0233 4.7749 3.0983 4.9749C3.1733 5.1749 3.2983 5.3249 3.4983 5.3999L4.9983 6.0249L3.4983 6.6499C3.3233 6.7249 3.1733 6.8749 3.0983 7.0749C3.0233 7.2749 3.0483 7.4749 3.1483 7.6499C3.2483 7.8249 3.4233 7.9499 3.6233 7.9999C3.6733 7.9999 3.7233 8.0249 3.7733 8.0249C3.9233 8.0249 4.0733 7.9749 4.1983 7.8749L5.4983 6.8999L5.2983 8.4999C5.2733 8.6999 5.3233 8.8999 5.4733 9.0499C5.5983 9.1999 5.7983 9.2999 5.9983 9.2999C6.1983 9.2999 6.3983 9.2249 6.5233 9.0499C6.6483 8.8999 6.7233 8.6999 6.6983 8.4999L6.4983 6.8499L7.7983 7.8249C7.9233 7.9249 8.0733 7.9749 8.2233 7.9749C8.2733 7.9749 8.3233 7.9749 8.3733 7.9499C8.5733 7.8999 8.7483 7.7749 8.8483 7.5999C8.9483 7.4249 8.9733 7.2249 8.8983 7.0249C8.7983 6.8499 8.6483 6.6999 8.4733 6.6249Z" fill="#E02424"/>
</g>
<defs>
<clipPath id="clip0_317_5973">
<rect width="12" height="12" fill="white"/>
</clipPath>
</defs>
</svg>
