<svg width="18" height="18" viewBox="0 0 18 18" fill="none" xmlns="http://www.w3.org/2000/svg">
<g clip-path="url(#clip0_297_5151)">
<path d="M9 1.5C4.875 1.5 1.5 4.875 1.5 9C1.5 13.125 4.875 16.5 9 16.5C13.125 16.5 16.5 13.125 16.5 9C16.5 4.875 13.125 1.5 9 1.5ZM12.75 7.575L8.25 11.325C8.1375 11.4 8.025 11.4375 7.875 11.4375C7.725 11.4375 7.575 11.4 7.4625 11.2875L5.2125 9.0375C4.9875 8.8125 4.9875 8.475 5.2125 8.25C5.4375 8.025 5.775 8.025 6 8.25L7.875 10.125L12 6.675C12.225 6.4875 12.6 6.525 12.7875 6.75C13.0125 7.0125 12.975 7.35 12.75 7.575Z" fill="#2FC44A"/>
</g>
<defs>
<clipPath id="clip0_297_5151">
<rect width="18" height="18" fill="white"/>
</clipPath>
</defs>
</svg>
