<svg width="18" height="18" viewBox="0 0 18 18" fill="none" xmlns="http://www.w3.org/2000/svg">
<g clip-path="url(#clip0_215_12390)">
<path d="M14.025 6.0375C13.3875 3.825 11.3625 2.25 9 2.25C6.6375 2.25 4.6125 3.825 3.975 6.0375C1.9125 6.3 0.375 8.025 0.375 10.125C0.375 12.2625 2.025 14.0625 4.1625 14.25C4.2 14.25 4.2375 14.25 4.3125 14.25H4.5C4.8 14.25 5.0625 13.9875 5.0625 13.6875C5.0625 13.3875 4.8 13.125 4.5 13.125H4.425C4.3875 13.125 4.3875 13.125 4.35 13.125C2.7375 13.05 1.5 11.7375 1.5 10.125C1.5 8.475 2.775 7.1625 4.425 7.125C4.6875 7.125 4.9125 6.9375 4.95 6.675C5.3625 4.7625 7.05 3.375 9 3.375C10.95 3.375 12.6375 4.7625 13.05 6.675C13.0875 6.9375 13.3125 7.125 13.575 7.125C15.225 7.1625 16.5 8.475 16.5 10.125C16.5 11.7375 15.2625 13.05 13.65 13.125C13.6125 13.125 13.6125 13.125 13.575 13.125H13.5C13.2 13.125 12.9375 13.3875 12.9375 13.6875C12.9375 13.9875 13.2 14.25 13.5 14.25H13.6875C13.725 14.25 13.7625 14.25 13.8375 14.25C15.975 14.0625 17.625 12.3 17.625 10.125C17.625 8.025 16.0875 6.3 14.025 6.0375ZM9.45 7.6875C9.225 7.425 8.775 7.425 8.55 7.6875L6.8625 9.9C6.675 10.1625 6.7125 10.5 6.975 10.6875C7.2375 10.875 7.575 10.8375 7.7625 10.575L8.4375 9.675V15.15C8.4375 15.45 8.7 15.7125 9 15.7125C9.3 15.7125 9.5625 15.45 9.5625 15.15V9.7125L10.2375 10.6125C10.35 10.7625 10.5 10.8375 10.6875 10.8375C10.8 10.8375 10.9125 10.8 11.025 10.725C11.2875 10.5375 11.325 10.2 11.1375 9.9375L9.45 7.6875Z" fill="#06203C" fill-opacity="0.45"/>
</g>
<defs>
<clipPath id="clip0_215_12390">
<rect width="18" height="18" fill="white"/>
</clipPath>
</defs>
</svg>
