<svg width="18" height="18" viewBox="0 0 18 18" fill="none" xmlns="http://www.w3.org/2000/svg">
<path d="M9 1.5C4.875 1.5 1.5 4.875 1.5 9C1.5 13.125 4.875 16.5 9 16.5C13.125 16.5 16.5 13.125 16.5 9C16.5 4.875 13.125 1.5 9 1.5ZM12.0375 11.2125C12.2625 11.4375 12.2625 11.775 12.0375 12C11.925 12.1125 11.775 12.15 11.625 12.15C11.475 12.15 11.325 12.1125 11.2125 12L9 9.7875L6.7875 12C6.675 12.1125 6.525 12.15 6.375 12.15C6.225 12.15 6.075 12.1125 5.9625 12C5.7375 11.775 5.7375 11.4375 5.9625 11.2125L8.175 9L5.9625 6.7875C5.7375 6.5625 5.7375 6.225 5.9625 6C6.1875 5.775 6.525 5.775 6.75 6L8.9625 8.2125L11.175 6C11.4 5.775 11.7375 5.775 11.9625 6C12.1875 6.225 12.1875 6.5625 11.9625 6.7875L9.7875 9L12.0375 11.2125Z" fill="#E02424"/>
</svg>
